# xmcd CD database file
#
# Track frame offsets:
#	150
#	22621
#	40624
#	63246
#	81655
#	103345
#	125846
#	147621
#	170950
#	186478
#	209320
#	237199
#	268970
#	295725
#
# Disc length: 4531 seconds
#
# Revision: 0
# Processed by: cddbd v1.4PL0 Copyright (c) Steve Scherf et al.
# Submitted via: CDex 1.51
#
DISCID=de11b10e
DTITLE=Oscar D'Leon - Infinito
DYEAR=1900
DGENRE=Salsa
TTITLE0=Como Olvidarte
TTITLE1=La Mazucamba
TTITLE2=Por Que Sera
TTITLE3=Senora
TTITLE4=Cualquiera
TTITLE5=Amor Verdadero
TTITLE6=Ya Lo Veras
TTITLE7=Tormenta De Amor
TTITLE8=Como Olvidarte
TTITLE9=Bailado Con Ella
TTITLE10=Clavo y Martillo
TTITLE11=No Hay Confucion
TTITLE12=Estamos En Salsa
TTITLE13=Sabor Sabor
EXTD=
EXTT0=
EXTT1=
EXTT2=
EXTT3=
EXTT4=
EXTT5=
EXTT6=
EXTT7=
EXTT8=
EXTT9=
EXTT10=
EXTT11=
EXTT12=
EXTT13=
PLAYORDER=
